<svg width="512" height="512" xmlns="http://www.w3.org/2000/svg"><defs><linearGradient x1="49.992%" y1="99.993%" x2="49.992%" y2=".003%" id="a"><stop offset="0%"/><stop offset="100%"/></linearGradient></defs><g transform="translate(36 58)" fill="none"><path d="M350.7 26.227l84.294 145.655c9.341 16.256 9.341 36.197 0 52.236L350.7 369.773C341.358 386.03 323.978 396 305.294 396H136.706c-18.684 0-36.064-9.97-45.406-26.227L7.006 224.118c-9.341-16.256-9.341-36.197 0-52.236L91.3 26.227C100.642 9.97 118.022 0 136.706 0h168.588c18.9 0 36.064 9.97 45.406 26.227z" fill="#FF123B"/><path d="M350.681 370.719L435.01 224.76c5.868-10.208 8.042-21.937 6.52-33.449l-86.937-86.88-.217.434.217-.434-6.52-3.258-16.084 25.847-.217-.217-18.257-18.245c-8.476-9.123-24.125-9.34-32.601-.217-8.476 8.905-8.259 24.326.87 32.797.217.434.651.651 1.086 1.086l24.342 24.326-5.433 8.688c-12.823-13.249-25.864-25.847-38.904-38.879l-19.561-19.548c-6.303-6.298-12.389-13.032-19.778-18.245-24.778-18.462-59.335-22.371-88.024-11.728-24.56 9.122-43.034 29.105-52.814 52.997-6.086 14.335-9.129 29.756-10.216 45.177-1.304 18.028 0 36.707 4.347 54.3 3.912 14.987 10.215 29.54 19.778 41.92 5 6.516 11.085 12.163 16.953 18.028l19.344 19.33c26.08 26.065 52.162 52.129 78.46 78.41h94.327c18.474 0 35.644-9.991 44.99-26.281z" fill-opacity=".2" fill="url(#a)"/><path d="M72 198.283C72 124.438 113.22 81 168.975 81c55.322 0 96.975 43.655 96.975 117.283 0 74.279-41.653 117.717-96.975 117.717C113.22 316 72 272.562 72 198.283zm133.856 0c0-52.126-12.8-72.759-36.88-72.759-24.299 0-36.882 20.633-36.882 72.759 0 52.343 12.8 72.976 36.881 72.976s36.881-20.633 36.881-72.976zm68.555-74.28c0-12.38 8.895-22.587 22.346-22.587 13.45 0 22.345 10.208 22.345 22.588 0 12.597-8.895 22.805-22.345 22.805-13.234 0-22.346-10.208-22.346-22.805zm30.156 0c0-8.687-2.82-11.945-7.81-11.945-4.773 0-7.81 3.258-7.81 11.946 0 8.905 2.82 11.945 7.81 11.945s7.81-3.258 7.81-11.945zm-15.186 70.153l58.358-93.392 6.509 3.258-58.359 93.392-6.508-3.258zm34.928-20.416c0-12.38 8.895-22.588 22.345-22.588 13.451 0 22.346 10.208 22.346 22.588 0 12.597-8.895 22.805-22.346 22.805-13.45 0-22.345-10.208-22.345-22.805zm29.939 0c0-8.687-2.82-11.945-7.81-11.945-4.773 0-7.81 3.258-7.81 11.945 0 8.905 2.82 11.946 7.81 11.946 4.99.217 7.81-3.04 7.81-11.946z" fill="#FFF"/></g></svg>