<?xml version="1.0" encoding="utf-8"?>
<svg xmlns="http://www.w3.org/2000/svg"
	xmlns:xlink="http://www.w3.org/1999/xlink"
	width="35px" height="35px" viewBox="0 0 35 35">
<path fillRule="evenodd" d="M 17.5 34C 26.6 34 34 26.6 34 17.5 34 8.4 26.6 1 17.5 1 8.4 1 1 8.4 1 17.5 1 26.6 8.4 34 17.5 34M 17.5 35C 7.83 35-0 27.16-0 17.5-0 7.83 7.83 0 17.5 0 27.17 0 35 7.83 35 17.5 35 27.16 27.17 35 17.5 35 17.5 35 17.5 35 17.5 35Z" fill="rgb(255,255,255)"/><path fillRule="evenodd" d="M 15.8 27.18C 15.8 27.18 13.95 25.32 13.95 25.32 13.95 25.32 22.7 16.57 22.7 16.57 22.7 16.57 24.55 18.43 24.55 18.43 24.55 18.43 15.8 27.18 15.8 27.18Z" fill="rgb(255,255,255)"/><path fillRule="evenodd" d="M 15.8 8.7C 15.8 8.7 13.95 10.55 13.95 10.55 13.95 10.55 22.7 19.3 22.7 19.3 22.7 19.3 24.55 17.45 24.55 17.45 24.55 17.45 15.8 8.7 15.8 8.7Z" fill="rgb(255,255,255)"/></svg>