<svg width="1024" height="1024" xmlns="http://www.w3.org/2000/svg"><g fill="none"><path fill="#2E404D" transform="rotate(90 512 717)" d="M273 447L751 447 751 987 273 987z"/><path fill="#DFE7E8" transform="rotate(90 512.5 718)" d="M342 668L683 668 683 768 342 768z"/><path fill="#ACB3BA" transform="rotate(-90 512.5 514)" d="M479 429L546 429 546 599 479 599z"/><path fill="#ACB3BA" transform="rotate(-90 512 922)" d="M478 837L546 837 546 1007 478 1007z"/><path fill="#DFE7E8" transform="rotate(90 191 717.5)" d="M20.5 667.5L361.5 667.5 361.5 767.5 20.5 767.5z"/><path fill="#ACB3BA" transform="rotate(-90 191 513.5)" d="M157.5 428.5L224.5 428.5 224.5 598.5 157.5 598.5z"/><path fill="#ACB3BA" transform="rotate(-90 191 922)" d="M157 837L225 837 225 1007 157 1007z"/><path fill="#DFE7E8" transform="rotate(90 831 717.5)" d="M660.5 667.5L1001.5 667.5 1001.5 767.5 660.5 767.5z"/><path fill="#ACB3BA" transform="rotate(-90 831 513.5)" d="M797.5 428.5L864.5 428.5 864.5 598.5 797.5 598.5z"/><path fill="#ACB3BA" transform="rotate(-90 831 922)" d="M797 837L865 837 865 1007 797 1007z"/><path d="M482.152 11.188L13.112 403.285C-14.604 430.988 4.584 480 42.96 480h938.08c38.376 0 57.564-46.881 29.848-74.584L541.848 11.188c-17.056-14.917-42.64-14.917-59.696 0z" fill="#E8F0F1"/><path fill="#E0E4E5" d="M1 956L1024 956 1024 1024 1 1024z"/><path fill="#CDD6E0" d="M73 427L512 58 951 427z"/><g transform="translate(448 136)"><path d="M65.632 0C30.155 0 0 28.444 0 64s28.381 64 63.858 64c35.476 0 63.858-28.444 63.858-64 3.547-35.556-26.608-64-62.084-64z" fill="#ACB3BA"/><path d="M60.333 97.904C49.42 96.469 42.323 92.959 37 87.98l7.5-10.75c3.145 3.442 8.468 6.953 15.833 9.096V69.788c-10.914-1.4-21.559-6.666-21.666-19.019.107-10.463 8.978-19.238 21.666-19.019V21h8.334v9.096c9.14 1.435 16.236 3.19 21.666 8.27l-7.5 10.75c-3.252-3.545-8.575-5.3-12.5-7.443v14.058C81.355 57.857 92 63.122 92 77.23c0 10.463-7.097 19.238-21.667 20.673V107H62v-9.096h-1.667zm0-43.827V41.673c-3.75.124-7.25 3.597-7.5 7.442.25 3.101 2 3.101 7.5 4.962zm8.334 17.365V85.5c5.5-1.82 7.25-3.556 7.5-6.615-.25-3.887-2-5.623-7.5-7.443z" fill="#FFF"/></g><path d="M327.077 390.598v-78.196H313v-9.089h36.38c1.898 0 3.69-.052 5.377-.156a81.88 81.88 0 0 1 5.062-.157c13.603 0 23.647 1.802 30.132 5.406 6.485 3.605 9.727 9.847 9.727 18.726 0 6.164-1.555 10.918-4.666 14.26-3.11 3.344-6.986 5.694-11.625 7.052 6.643 1.672 11.573 4.466 14.789 8.384 3.216 3.918 4.824 9.324 4.824 16.219 0 4.91-.817 9.089-2.452 12.536-1.634 3.448-4.086 6.242-7.355 8.384-3.269 2.142-7.434 3.682-12.495 4.623-5.062.94-10.967 1.41-17.716 1.41-1.792 0-3.743-.052-5.852-.157a137.939 137.939 0 0 0-6.801-.156H313v-9.09h14.077zM353 353v39.524c2.646.317 5.767.476 9.365.476 1.164 0 2.249-.026 3.254-.08a29.93 29.93 0 0 0 2.62-.237c.846-.106 1.586-.265 2.221-.477.424-1.587.847-3.333 1.27-5.238.318-1.693.609-3.677.873-5.952.265-2.275.397-4.894.397-7.857 0-2.752-.185-5.37-.556-7.857-.37-2.487-.767-4.63-1.19-6.429-.423-2.116-.952-4.074-1.587-5.873H353zm6.268-42c-2.25 0-4.34.159-6.268.477V345h16.554c.214-1.483.428-3.178.642-5.084.215-1.589.402-3.416.563-5.481.16-2.066.241-4.317.241-6.753s-.134-4.634-.402-6.593c-.268-1.96-.562-3.68-.884-5.164a283.74 283.74 0 0 1-1.125-4.29c-.75-.105-1.66-.211-2.732-.317a39.962 39.962 0 0 0-3.053-.239 78.753 78.753 0 0 0-3.536-.079zm56.31 79.847l29.685-85.217 20.21-3.63L501 396.686V400h-28.737l-11.21-31.089h-28.106l-7.579 21.936h17.053V400H405v-9.153h10.579zM436 360h22l-11.08-30L436 360zm94.005-57l51.147 52.049v-42.901H567.19V303H605v9.148h-13.964V400h-4.863l-56.325-59.62v50.472h13.963V400H506v-9.148h13.964v-78.704H506V303h24.005zM711 400h-29.068l-29.068-45.109H651.6v35.961h10.9V400H611v-9.148h14.06v-78.704H611V303h40.6v42.27l29.858-33.122h-12.006V303h40.6v9.148h-15.956l-22.432 24.92L711 396.688V400z" fill="#2E404D" opacity=".702"/><path fill="#919CA7" d="M106 480L276 480 276 506 106 506z"/><path fill="#919CA7" d="M427 480L597 480 597 506 427 506z"/><path fill="#919CA7" d="M746 480L916 480 916 506 746 506z"/></g></svg>