<svg width="512" height="512" xmlns="http://www.w3.org/2000/svg"><g transform="translate(33 112)" fill="none"><path d="M33.79 229h253.42c18.662 0 33.79-15.19 33.79-33.926V33.926C321 15.189 305.872 0 287.21 0H33.79C15.127 0 0 15.19 0 33.926v161.148C0 213.811 15.128 229 33.79 229z" fill="#5D647F"/><path d="M177.395 195.074h101.368c4.67 0 8.448-3.798 8.448-8.481 0-4.684-3.779-8.482-8.448-8.482H177.395c-4.67 0-8.448 3.798-8.448 8.482 0 4.683 3.778 8.481 8.448 8.481zm0-33.926h33.79c4.668 0 8.447-3.797 8.447-8.481 0-4.684-3.779-8.482-8.448-8.482h-33.79c-4.669 0-8.447 3.798-8.447 8.482 0 4.684 3.778 8.481 8.448 8.481zm-67.58 0h33.79c4.67 0 8.448-3.797 8.448-8.481 0-4.684-3.778-8.482-8.448-8.482h-33.79c-4.668 0-8.447 3.798-8.447 8.482 0 4.684 3.779 8.481 8.448 8.481zm0 33.926h33.79c4.67 0 8.448-3.798 8.448-8.481 0-4.684-3.778-8.482-8.448-8.482h-33.79c-4.668 0-8.447 3.798-8.447 8.482 0 4.683 3.779 8.481 8.448 8.481zm-67.578-33.926h33.79c4.669 0 8.447-3.797 8.447-8.481 0-4.684-3.778-8.482-8.448-8.482h-33.79c-4.668 0-8.447 3.798-8.447 8.482 0 4.684 3.779 8.481 8.448 8.481z" fill="#5C546A"/><path d="M278.763 118.74H42.237c-4.67 0-8.448-3.797-8.448-8.48 0-4.685 3.779-8.482 8.448-8.482h236.526c4.67 0 8.448 3.797 8.448 8.481 0 4.684-3.779 8.482-8.448 8.482z" fill="#B8BAC0"/><path fill="#5C546A" d="M0 33.926H321V76.333H0z"/><path d="M412.21 288H158.79c-18.662 0-33.79-15.19-33.79-33.926V92.926C125 74.189 140.128 59 158.79 59h253.42C430.873 59 446 74.19 446 92.926v161.148C446 272.811 430.872 288 412.21 288z" fill="#6C748D"/><path d="M352.995 149.488C346.817 156.548 337.779 161 327.71 161c-18.617 0-33.71-15.222-33.71-34s15.093-34 33.71-34c10.072 0 19.113 4.455 25.29 11.52" fill="#FF4F19"/><path d="M226 161h-51c-9.39 0-17-7.61-17-17v-34c0-9.39 7.61-17 17-17h51c9.39 0 17 7.61 17 17v34c0 9.39-7.61 17-17 17z" fill="#FFD100"/><path d="M200.5 220h-34a8.498 8.498 0 0 1-8.5-8.5c0-4.694 3.802-8.5 8.5-8.5h34c4.698 0 8.5 3.806 8.5 8.5s-3.802 8.5-8.5 8.5z" fill="#B8BAC0"/><path d="M268.571 254H167.43c-4.66 0-8.429-3.806-8.429-8.5s3.77-8.5 8.429-8.5H268.57c4.66 0 8.429 3.806 8.429 8.5s-3.77 8.5-8.429 8.5z" fill="#8A8895"/><path d="M268.5 220h-34a8.498 8.498 0 0 1-8.5-8.5c0-4.694 3.802-8.5 8.5-8.5h34c4.698 0 8.5 3.806 8.5 8.5s-3.802 8.5-8.5 8.5zm68 0h-34a8.498 8.498 0 0 1-8.5-8.5c0-4.694 3.802-8.5 8.5-8.5h34c4.698 0 8.5 3.806 8.5 8.5s-3.802 8.5-8.5 8.5z" fill="#B8BAC0"/><path d="M336.5 254h-34a8.498 8.498 0 0 1-8.5-8.5c0-4.694 3.802-8.5 8.5-8.5h34c4.698 0 8.5 3.806 8.5 8.5s-3.802 8.5-8.5 8.5z" fill="#8A8895"/><path d="M403.5 220h-34a8.498 8.498 0 0 1-8.5-8.5c0-4.694 3.802-8.5 8.5-8.5h34c4.698 0 8.5 3.806 8.5 8.5s-3.802 8.5-8.5 8.5z" fill="#B8BAC0"/><circle fill="#FFD100" cx="378" cy="127" r="34"/><path fill="#FF9500" d="M200.857143 118.5L200.857143 93 184 93 184 161 200.857143 161 200.857143 135.5 243 135.5 243 118.5z"/></g></svg>