<svg width="512" height="512" xmlns="http://www.w3.org/2000/svg"><g transform="translate(34 35)" fill="none"><path fill="#31978C" d="M444 167.417604L115.038656 360 17 192.582396 345.958636 0z"/><path d="M320.183 36L60.735 187.929c5.643 9.638 2.179 22.158-7.735 27.963l58.646 100.17c9.915-5.806 22.527-2.7 28.17 6.938l259.448-151.929c-5.643-9.638-2.18-22.157 7.736-27.963l-58.648-100.17c-9.915 5.807-22.526 2.7-28.169-6.938z" fill="#44C4A1"/><g transform="translate(151 93)" fill="#31978C"><ellipse transform="rotate(-120.35 79.245 87.316)" cx="79.245" cy="87.316" rx="66.316" ry="52.275"/><ellipse cx="206.874" cy="12.275" rx="11.812" ry="11.865"/></g><circle fill="#3EA69B" cx="102" cy="255" r="12"/><path d="M254.12 227l-4.728-8.089c-10.713 4.897-22.142 6.193-34.273 3.887l2.44-14.375c9.347 1.76 17.597 1.232 24.775-1.585l-12.567-21.497c-9.501 2.896-17.139 3.852-22.91 2.872-5.77-.98-10.524-4.665-14.259-11.053-3.734-6.388-4.565-12.918-2.477-19.603 2.09-6.681 6.603-12.3 13.544-16.866l-3.24-5.54 7.077-4.151 3.302 5.65c8.46-4.162 17.748-5.892 27.871-5.181l-1.234 14.412c-6.9-.616-13.419.331-19.576 2.847l12.176 20.83.333-.196c9.648-2.977 17.454-3.934 23.417-2.873 5.975 1.06 10.848 4.826 14.625 11.286 3.78 6.465 4.57 13.073 2.37 19.812-2.196 6.75-6.943 12.505-14.253 17.289l4.663 7.975L254.12 227zm-49.614-66.94c-.91 2.762-.637 5.38.81 7.855 1.446 2.476 3.329 4 5.645 4.571 2.311.582 5.928.32 10.838-.774l-11.206-19.17c-3.148 2.246-5.177 4.75-6.087 7.517zm51.691 34.924c1.071-2.904.854-5.653-.658-8.24-1.51-2.584-3.52-4.16-6.026-4.725-2.515-.56-6.37-.205-11.568 1.057l11.658 19.941c3.324-2.44 5.518-5.119 6.594-8.033z" fill="#44C4A1"/><path fill="#F6C358" d="M311 244.569639L247.089697 282 149 114.429458 212.910303 77z"/><path d="M256.62 276.145L251.75 279 154 111.841l4.87-2.855 97.75 167.16zM306 247.158l-4.87 2.856-97.748-167.16L208.25 80 306 247.158z" fill="#FFF"/><path fill="#3EA69B" d="M437 305.895453L62.6362816 378 26 187.105451 400.363718 115z"/><path d="M71.137 347.994L45 211.785c7.512-1.446 12.431-8.718 10.988-16.243L375.647 134c1.444 7.525 8.704 12.452 16.216 11.006L418 281.215c-7.512 1.446-12.431 8.718-10.988 16.243L87.353 359c-1.444-7.525-8.704-12.453-16.216-11.006z" fill="#44C4A1"/><g transform="translate(74 170)" fill="#3EA69B"><ellipse transform="rotate(-100.883 157.403 75.748)" cx="157.403" cy="75.748" rx="66.308" ry="52.297"/><ellipse cx="302.852" cy="47.749" rx="11.83" ry="11.851"/><ellipse cx="11.974" cy="103.762" rx="11.83" ry="11.851"/></g><path d="M155 410.547C155 428.47 120.302 443 77.5 443S0 428.47 0 410.547V384h155v26.547z" fill="#F6C358"/><ellipse fill="#FCD462" cx="77.5" cy="384.5" rx="77.5" ry="32.5"/><g transform="translate(9 357)" fill="#DC8744"><path d="M68.251.83C31.015.83.83 12.5.83 26.898c0 14.397 30.186 26.068 67.422 26.068s67.423-11.67 67.423-26.068C135.674 12.5 105.487.83 68.251.83zm0 49.239c-33.098 0-59.93-10.375-59.93-23.172S35.152 3.725 68.25 3.725c33.099 0 59.931 10.375 59.931 23.172 0 12.798-26.832 23.172-59.93 23.172z"/><path d="M65.783 44.905v-3.172C55.513 41.328 46.295 39.75 38.139 37l8.202-3.779A75.02 75.02 0 0 0 65.783 37v-8.43c-8.468-.78-14.669-1.81-18.6-3.084-3.933-1.275-5.9-3.165-5.9-5.67s2.26-4.553 6.795-6.148c4.536-1.593 10.434-2.46 17.705-2.606V8.889h7.187v2.215c8.24.234 16.03 1.319 23.374 3.26l-7.306 3.997c-4.948-1.36-10.298-2.2-16.067-2.52v8.167h.338c8.614.783 14.942 1.84 18.985 3.171 4.05 1.333 6.072 3.267 6.072 5.8 0 2.535-2.323 4.6-6.969 6.192-4.645 1.594-10.781 2.462-18.426 2.607v3.127h-7.188zm-7.929-28.042c-1.911.65-2.862 1.462-2.862 2.433 0 .97.75 1.738 2.25 2.301 1.49.566 4.343 1.109 8.54 1.63V15.71c-3.374.116-6.017.5-7.928 1.153zm23.657 19.05c2.094-.665 3.146-1.505 3.146-2.52 0-1.013-.823-1.817-2.469-2.41-1.655-.594-4.727-1.151-9.217-1.673v7.819c3.592-.143 6.437-.55 8.54-1.217z"/></g><path d="M155 378.547C155 396.47 120.302 411 77.5 411S0 396.47 0 378.547V352h155v26.547z" fill="#F6C358"/><ellipse fill="#FCD462" cx="77.5" cy="352.5" rx="77.5" ry="32.5"/><g transform="translate(9 326)" fill="#DC8744"><path d="M68.251.085C31.015.085.83 11.756.83 26.153c0 14.397 30.186 26.068 67.422 26.068s67.423-11.67 67.423-26.068c0-14.397-30.187-26.068-67.423-26.068zm0 49.24c-33.098 0-59.93-10.375-59.93-23.173 0-12.797 26.832-23.171 59.93-23.171 33.099 0 59.931 10.374 59.931 23.171 0 12.799-26.832 23.172-59.93 23.172z"/><path d="M65.783 44.16V40.99c-10.27-.405-19.488-1.984-27.644-4.734l8.202-3.78a75.02 75.02 0 0 0 19.442 3.78v-8.43c-8.468-.78-14.669-1.81-18.6-3.084-3.933-1.275-5.9-3.165-5.9-5.67 0-2.504 2.26-4.553 6.795-6.148 4.536-1.593 10.434-2.46 17.705-2.606V8.144h7.187v2.215c8.24.234 16.03 1.319 23.374 3.26l-7.306 3.998c-4.948-1.361-10.298-2.201-16.067-2.521v8.167h.338c8.614.784 14.942 1.841 18.985 3.172 4.05 1.333 6.072 3.267 6.072 5.8 0 2.536-2.323 4.6-6.969 6.192-4.645 1.594-10.781 2.462-18.426 2.608v3.127h-7.188v-.001zm-7.929-28.042c-1.911.65-2.862 1.463-2.862 2.433 0 .97.75 1.738 2.25 2.301 1.49.566 4.343 1.109 8.54 1.63v-7.517c-3.374.118-6.017.501-7.928 1.153zm23.657 19.05c2.094-.665 3.146-1.505 3.146-2.52 0-1.012-.823-1.816-2.469-2.41-1.655-.594-4.727-1.15-9.217-1.673v7.82c3.592-.144 6.437-.55 8.54-1.217z"/></g><path d="M155 346.547C155 364.47 120.302 379 77.5 379S0 364.47 0 346.547V320h155v26.547z" fill="#F6C358"/><ellipse fill="#FCD462" cx="77.5" cy="319.5" rx="77.5" ry="32.5"/><g transform="translate(9 293)" fill="#DC8744"><path d="M68.251.239C31.015.239.83 11.909.83 26.307c0 14.397 30.186 26.068 67.422 26.068s67.423-11.671 67.423-26.068c0-14.397-30.187-26.068-67.423-26.068zm0 49.24c-33.098 0-59.93-10.375-59.93-23.172S35.152 3.135 68.25 3.135c33.099 0 59.931 10.375 59.931 23.172s-26.832 23.172-59.93 23.172z"/><path d="M65.783 44.315v-3.172c-10.27-.405-19.488-1.983-27.644-4.734l8.202-3.779a75.02 75.02 0 0 0 19.442 3.78v-8.43c-8.468-.781-14.669-1.81-18.6-3.084-3.933-1.275-5.9-3.165-5.9-5.67 0-2.504 2.26-4.553 6.795-6.148 4.536-1.593 10.434-2.46 17.705-2.606V8.299h7.187v2.215c8.24.233 16.03 1.318 23.374 3.26l-7.306 3.997c-4.948-1.36-10.298-2.2-16.067-2.52v8.167h.338c8.614.783 14.942 1.84 18.985 3.172 4.05 1.333 6.072 3.267 6.072 5.8 0 2.535-2.323 4.6-6.969 6.191-4.645 1.595-10.781 2.463-18.426 2.608v3.127h-7.188zm-7.929-28.043c-1.911.65-2.862 1.462-2.862 2.433 0 .97.75 1.737 2.25 2.301 1.49.566 4.343 1.108 8.54 1.63v-7.518c-3.374.118-6.017.502-7.928 1.154zm23.657 19.05c2.094-.664 3.146-1.504 3.146-2.519 0-1.013-.823-1.817-2.469-2.41-1.655-.594-4.727-1.151-9.217-1.673v7.819c3.592-.144 6.437-.551 8.54-1.217z"/></g><path d="M155 313.547C155 331.47 120.302 346 77.5 346S0 331.47 0 313.547V287h155v26.547z" fill="#F6C358"/><ellipse fill="#FCD462" cx="77.5" cy="287.5" rx="77.5" ry="32.5"/><path d="M77.251 261.393c-37.236 0-67.422 11.67-67.422 26.067 0 14.398 30.186 26.068 67.422 26.068s67.423-11.67 67.423-26.068c0-14.397-30.187-26.067-67.423-26.067zm0 49.24c-33.098 0-59.93-10.375-59.93-23.173 0-12.797 26.832-23.171 59.93-23.171 33.099 0 59.931 10.374 59.931 23.171 0 12.798-26.832 23.172-59.93 23.172z" fill="#DC8744"/><path d="M318 410.547C318 428.47 283.302 443 240.5 443S163 428.47 163 410.547V384h155v26.547z" fill="#F6C358"/><ellipse fill="#FCD462" cx="240.5" cy="384.5" rx="77.5" ry="32.5"/><g transform="translate(173 357)" fill="#DC8744"><path d="M68.146.83C30.91.83.723 12.5.723 26.898c0 14.397 30.187 26.068 67.423 26.068 37.236 0 67.423-11.67 67.423-26.068C135.569 12.5 105.383.83 68.146.83zm0 49.239c-33.099 0-59.931-10.375-59.931-23.172S35.047 3.725 68.145 3.725c33.1 0 59.932 10.375 59.932 23.172 0 12.798-26.833 23.172-59.931 23.172z"/><path d="M65.677 44.905v-3.172C55.407 41.328 46.19 39.75 38.033 37l8.202-3.779A75.02 75.02 0 0 0 65.677 37v-8.43c-8.468-.78-14.668-1.81-18.6-3.084-3.933-1.275-5.899-3.165-5.899-5.67s2.26-4.553 6.795-6.148c4.536-1.593 10.434-2.46 17.704-2.606V8.889h7.187v2.215c8.24.234 16.031 1.319 23.374 3.26l-7.306 3.997c-4.947-1.36-10.297-2.2-16.067-2.52v8.167h.339c8.614.783 14.942 1.84 18.984 3.171 4.051 1.333 6.072 3.267 6.072 5.8 0 2.535-2.322 4.6-6.968 6.192-4.646 1.594-10.782 2.462-18.427 2.607v3.127h-7.188zM57.75 16.863c-1.912.65-2.863 1.462-2.863 2.433 0 .97.75 1.738 2.25 2.301 1.49.566 4.344 1.109 8.541 1.63V15.71c-3.375.116-6.017.5-7.928 1.153zm23.657 19.05c2.094-.665 3.146-1.505 3.146-2.52 0-1.013-.823-1.817-2.468-2.41-1.656-.594-4.728-1.151-9.218-1.673v7.819c3.593-.143 6.436-.55 8.54-1.217z"/></g><path d="M318 378.547C318 396.47 283.302 411 240.5 411S163 396.47 163 378.547V352h155v26.547z" fill="#F6C358"/><ellipse fill="#FCD462" cx="240.5" cy="352.5" rx="77.5" ry="32.5"/><path d="M241.146 326.085c-37.236 0-67.423 11.671-67.423 26.068 0 14.397 30.187 26.068 67.423 26.068 37.236 0 67.423-11.67 67.423-26.068 0-14.397-30.186-26.068-67.423-26.068zm0 49.24c-33.099 0-59.931-10.375-59.931-23.173 0-12.797 26.832-23.171 59.93-23.171 33.1 0 59.932 10.374 59.932 23.171 0 12.799-26.833 23.172-59.931 23.172z" fill="#DC8744"/></g></svg>