<?xml version="1.0" encoding="UTF-8"?>
<svg width="512px" height="512px" viewBox="0 0 512 512" version="1.1" xmlns="http://www.w3.org/2000/svg" xmlns:xlink="http://www.w3.org/1999/xlink">
    <!-- Generator: Sketch 55.2 (78181) - https://sketchapp.com -->
    <title>Contact</title>
    <desc>Created with Sketch.</desc>
    <defs>
        <linearGradient x1="19.8827691%" y1="46.9052383%" x2="121.639212%" y2="57.3790508%" id="linearGradient-1">
            <stop stop-color="#FFFFFF" offset="2%"></stop>
            <stop stop-color="#0090D0" offset="10%"></stop>
            <stop stop-color="#0090D0" offset="26%"></stop>
            <stop stop-color="#0090D0" offset="100%"></stop>
        </linearGradient>
        <linearGradient x1="16.1085142%" y1="46.4694064%" x2="84.5141903%" y2="53.6023945%" id="linearGradient-2">
            <stop stop-color="#0090D0" offset="0%"></stop>
            <stop stop-color="#0090D0" offset="74%"></stop>
            <stop stop-color="#0090D0" offset="90%"></stop>
            <stop stop-color="#FFFFFF" offset="98%"></stop>
        </linearGradient>
    </defs>
    <g id="Contact" stroke="none" stroke-width="1" fill="none" fill-rule="evenodd">
        <g id="contact_card" transform="translate(0.000000, 149.000000)" fill-rule="nonzero">
            <polygon id="Path" fill="url(#linearGradient-1)" points="47.849795 16.0717489 20.6636771 57.3991031 237.15952 57.3991031 266.331839 16.0717489 47.849795 16.0717489"></polygon>
            <path d="M371.688524,34.0362717 C374.788885,29.452221 381.733695,16.0717489 361.519338,16.0717489 L360.403208,16.0717489 L277.189506,16.4434287 L257.099164,56.7087384 L321.462668,56.7087384 L233.040359,214.672646 L371.688524,34.0362717 Z" id="Path" fill="#0090D0"></path>
            <path d="M22.4576977,143.250366 C6.786374,142.879277 -4.03430189,125.932913 1.43822384,109.233941 C5.79136932,95.0088903 15.3682894,82.7629773 28.3033502,75.2175157 C36.6365144,70.2696721 46.2134344,67.6720542 56.0391056,67.7957503 C61.1385046,67.424662 66.2379036,68.6616229 70.5910491,71.1355447 L71.8348049,72.1251135 L61.7603825,88.5766935 L59.6459976,87.2160365 C56.4122324,85.7316834 52.929716,85.113203 49.4471996,85.2368991 C44.0990495,85.2368991 38.9996505,86.9686444 34.646505,89.9373505 C27.8058478,94.8851942 22.8308245,101.935871 20.7164395,109.976117 C17.7314255,119.995501 21.462693,125.438129 31.1639886,125.438129 C35.2683829,125.438129 39.3727772,124.819648 43.352796,123.335295 L46.7109368,122.098334 L43.6015471,138.921002 C37.1340167,142.260797 29.7958572,143.74515 22.4576977,143.250366 L22.4576977,143.250366 Z M399.564471,143.250366 C383.893148,142.879277 373.072472,125.932913 378.544997,109.233941 C382.898143,94.8851942 392.475063,82.7629773 405.285748,75.2175157 C413.618912,70.2696721 423.195832,67.6720542 432.897128,67.7957503 C437.996527,67.424662 443.095926,68.6616229 447.449071,71.1355447 L448.692827,72.1251135 L438.74278,88.5766935 L436.628396,87.2160365 C433.39463,85.7316834 429.912114,85.113203 426.429598,85.2368991 C421.081447,85.2368991 415.982048,86.9686444 411.628903,89.9373505 C404.788246,94.8851942 399.813222,101.935871 397.698837,109.976117 C394.838199,119.995501 398.445091,125.438129 408.146387,125.438129 C412.250781,125.438129 416.355175,124.819648 420.210818,123.335295 L423.568959,122.098334 L420.459569,138.921002 C414.116415,142.260797 406.902631,143.74515 399.564471,143.250366 L399.564471,143.250366 Z M76.5610771,143.497758 C59.6459976,143.497758 51.6859602,131.128149 57.1584859,112.573735 C61.014129,99.2145573 68.8497909,87.4634287 79.5460912,78.5573102 C87.5061286,72.1251135 97.3317998,68.4142307 107.530598,68.1668386 C124.694429,68.1668386 132.281339,80.2890554 126.808813,99.0908613 C123.077546,112.326343 115.36626,124.201168 104.794335,133.107286 C96.8342975,139.663179 86.8842507,143.374062 76.5610771,143.497758 L76.5610771,143.497758 Z M100.938692,85.2368991 C96.9586731,85.3605952 93.2274055,86.9686444 90.3667671,89.6899583 C83.7748611,95.7510668 79.0485888,103.543921 76.5610771,112.078951 C74.6954434,118.634844 74.3223166,126.304001 83.5261099,126.304001 C87.381753,126.056609 90.988645,124.572256 93.8492835,122.098334 C99.6949359,117.397883 105.416213,106.883715 107.530598,99.4619495 C111.634992,85.2368991 103.550579,85.2368991 100.938692,85.2368991 L100.938692,85.2368991 Z M152.057057,142.260797 L150.56455,113.439608 C150.56455,108.862852 150.315799,104.904578 150.440175,101.069999 C148.32579,105.77045 145.962654,110.965686 143.226391,116.53201 L131.037583,142.384493 L112.878748,142.384493 L147.579536,69.2801034 L167.977132,69.2801034 L169.345264,96.8643316 L169.345264,106.883715 C170.713395,103.543921 172.454653,99.9567339 174.320287,95.998459 L187.006597,69.1564073 L205.165432,69.1564073 L170.589019,142.137101 L152.057057,142.137101 L152.057057,142.260797 Z M234.891197,142.260797 L261.383196,86.8449483 L243.597488,86.8449483 L252.055027,69.1564073 L307.650914,69.1564073 L299.068999,86.8449483 L280.910163,86.8449483 L254.418164,142.260797 L234.891197,142.260797 L234.891197,142.260797 Z M347.451101,142.260797 L351.182369,124.572256 L335.262294,124.572256 L321.829731,142.260797 L300.43713,142.260797 L358.769279,69.2801034 L380.783758,69.2801034 L367.973073,142.384493 L347.451101,142.260797 L347.451101,142.260797 Z M355.162387,108.491764 C355.162387,108.491764 358.769279,91.916488 359.018031,90.8032232 C358.023026,92.1638802 346.207345,108.491764 346.207345,108.491764 L355.162387,108.491764 Z M439.240283,142.260797 L465.732282,86.8449483 L447.697823,86.8449483 L456.404114,69.1564073 L512,69.1564073 L503.418085,86.8449483 L485.259249,86.8449483 L458.76725,142.260797 L439.240283,142.260797 Z" id="Shape" fill="#231F20"></path>
            <path d="M205.274256,152.030057 L281.255605,0 L155.032518,175.237911 L154.661273,175.734335 C152.433807,178.712883 151.320074,182.311962 151.56757,186.035147 C152.062563,189.634226 154.908769,192.860987 163.694886,192.860987 L241.903702,192.860987 L263.80712,152.030057 L205.274256,152.030057 L205.274256,152.030057 Z" id="Path" fill="#0090D0"></path>
            <polygon id="Path" fill="url(#linearGradient-2)" points="284.687414 151.533632 253.704036 192.860987 451.625854 192.860987 476.412556 151.533632"></polygon>
        </g>
    </g>
</svg>