<svg width="512" height="512" xmlns="http://www.w3.org/2000/svg"><path d="M343.964 424.45c33.482 0 69.812 11.513 110.02 47.245 4.028 3.579 9.389-.869 5.876-5.316-39.515-50.038-76.063-59.564-112.512-67.62-44.582-9.853-67.515-35.012-83.498-62.637-3.18-5.496-4.607-4.527-4.892 2.538-.35 8.64.244 20.072 2.17 31.322-1.796.084-3.606.06-5.424.06-63.783 0-115.49-51.855-115.49-115.825 0-63.97 51.707-115.829 115.49-115.829 63.781 0 115.488 51.858 115.488 115.829 0 4.552-.221 9.05-.731 13.464-8.437-1.525-25.032-1.698-36.678-.687-4.38.379-3.764 2.426-.452 3.026 38.176 6.92 64.406 30.648 70.401 73.708.137.988 1.429 1.286 1.942.43 15.709-26.291 24.732-57.061 24.732-89.941C430.406 157.447 352.191 79 255.704 79 159.218 79 81 157.448 81 254.217c0 96.769 78.218 175.224 174.704 175.224 25.599 0 50.991-4.992 88.26-4.992zm12.841-62.507c7.942 6.431 10.36 14.077 6.157 19.47-2.337 2.955-6.126 4.587-10.664 4.587-4.457 0-9-1.58-12.153-4.215-7.223-6.041-9.346-15.843-4.629-21.41 1.843-2.175 4.837-3.375 8.425-3.375 4.364 0 8.93 1.759 12.864 4.943zM389.03 355c-2.632 0-5.937-3.069-9.838-9.12-3.847-5.977-5.253-12.832-3.348-16.297 1.261-2.293 3.898-3.29 7.223-2.037 6.44 2.42 8.968 12.231 9.643 16.75 1.135 7.57-1.268 10.704-3.68 10.704z" fill="#E9832C" fill-rule="evenodd"/></svg>