<svg width="512" height="512" xmlns="http://www.w3.org/2000/svg" xmlns:xlink="http://www.w3.org/1999/xlink"><defs><path id="a" d="M0.0922641509 0.354655914L325.263425 0.354655914 325.263425 428 0.0922641509 428z"/></defs><g transform="translate(93 43)" fill="none" fill-rule="evenodd"><mask id="b" fill="#fff"><use xlink:href="#a"/></mask><path d="M.005 212.485c0-24.013 2.013-39.251 51.746-76.374C92.925 105.378 224.9.355 224.9.355v175.318h100.363V428H31.353C14.112 428 0 413.89 0 396.648l.005-184.163" fill="#FACA22" mask="url(#b)"/><path fill="#C9A521" d="M225.288412 176L225.288412 277.487142 41 403 274 327.209928 274 176 225.288412 176"/><path d="M140.359 170.474c10.771-12.742 26.504-17.241 35.142-10.045 8.638 7.197 6.912 23.361-3.861 36.103-10.766 12.74-26.503 17.234-35.141 10.037-8.64-7.195-6.909-23.355 3.86-36.095" fill="#000"/></g></svg>