<svg width="512" height="512" xmlns="http://www.w3.org/2000/svg"><g fill="none" fill-rule="evenodd"><path fill="#E0002E" d="M0 112H512V400H0z"/><g fill-rule="nonzero"><path d="M474.572 215.24c.01-.2-.03-.4-.116-.583a.923.923 0 0 0-.433-.49 1.849 1.849 0 0 0-.669-.193 4.387 4.387 0 0 0-.839-.066h-1.48v2.993h1.233c.417 0 .761 0 1.04-.07.256-.064.5-.173.719-.32.24-.178.348-.348.483-.545.02-.205.062-.417.062-.726zm3.44 6.322h-2.184l-3.185-3.464h-1.608v3.464h-1.593v-8.867h3.027c.603 0 1.136.023 1.515.097.394.05.773.17 1.16.316.402.252.719.58.916.87.207.35.311.751.301 1.158 0 .625-.2 1.12-.533 1.583-.402.425-.928.75-1.546.97l3.73 3.873zm1.847-4.26c0-1.973-.684-3.719-2.125-5.136a6.806 6.806 0 0 0-5.11-2.147c-2.026 0-3.754.676-5.165 2.147-1.399 1.417-2.133 3.163-2.133 5.136 0 2.032.734 3.72 2.133 5.156 1.411 1.444 3.14 2.124 5.165 2.124 1.982 0 3.691-.68 5.11-2.124a6.948 6.948 0 0 0 2.125-5.156zm1.14 0a8.31 8.31 0 0 1-2.434 5.939 8.326 8.326 0 0 1-5.941 2.437 8.276 8.276 0 0 1-5.941-2.413 8.156 8.156 0 0 1-2.501-5.963c0-2.309.835-4.248 2.5-5.947a8.148 8.148 0 0 1 5.942-2.417c2.28 0 4.282.803 5.921 2.421 1.616 1.7 2.455 3.634 2.455 5.943zm-302.67-9.978c0 5.997-2.583 11.006-7.79 14.095 5.041 2.664 9.285 7.036 9.285 13.06 0 9.411-5.504 16.366-14.251 19.483-3.077 1.092-6.59 1.649-10.553 1.649-7.978 0-17.703-2.997-23.656-8.442l4.391-6.944c1.496-2.127 3.959-2.143 6.069-.919 4.63 2.669 8.067 4.526 13.633 4.526 6.142 0 10.425-2.015 10.425-8.785 0-6.024-6.146-7.77-11.128-7.693h-9.316l-.046-11.508h8.129c3.703 0 6.44-.625 8.221-1.869 1.794-1.243 2.687-3.058 2.687-5.433 0-5.364-5.516-6.584-9.857-6.584-4.639 0-7.68 1.456-11.673 3.498-2.378 1.205-4.156.769-5.559-1.479l-3.695-6.893c5.701-4.827 13.73-6.808 21.066-6.808 3.61 0 6.869.417 9.783 1.247 7.654 2.178 13.834 7.318 13.834 15.799zm28.19 38.265c7.811 0 9.145-7.012 9.145-13.4 0-6.399-1.326-13.354-9.146-13.354-7.931 0-9.32 6.797-9.32 13.354 0 6.546 1.392 13.4 9.32 13.4zm0-36.86c14.123 0 23.218 9.307 23.218 23.368 0 14.083-8.998 23.599-23.219 23.599-14.255 0-23.389-9.42-23.389-23.596 0-14.164 9.227-23.37 23.39-23.37zm68.682.703v45.56h-13.637v-35.504h-9.636c-.61 8.836-.56 23.147-6.277 30.338-2.25 2.83-5.037 4.808-8.643 5.449a34.688 34.688 0 0 1-5.55.417c-.863 0-1.47-.016-2.308-.348-.839-.344-.808-.95-.808-1.537v-8.179h-.093c.943 0 1.863-.124 2.768-.367 2.821-.772 4.178-2.761 5.384-5.275 3.568-7.465 2.582-22.367 3.015-30.554h35.785zm28.012 36.157c7.808 0 9.15-7.012 9.15-13.4 0-6.399-1.334-13.354-9.15-13.354-7.927 0-9.323 6.797-9.323 13.354 0 6.55 1.4 13.4 9.324 13.4zm0-36.86c14.128 0 23.22 9.307 23.22 23.368 0 14.083-8.999 23.599-23.22 23.599-14.243 0-23.396-9.423-23.396-23.596 0-14.157 9.245-23.37 23.397-23.37zm22.934.703h42.627v9.747h-14.496v35.814h-13.633v-35.814h-14.498v-9.747zm104.773 18.39c1.056 1.035 2.424 1.552 4.094 1.552H440v-11.423h-4.986c-2.517 0-4.75 1.105-5.412 3.65-.549 2.127-.309 4.606 1.315 6.22h.003zm22.002 27.167h-12.926V237.46c-1.457 0-3.162.078-4.333 1.082-.75.618-1.275 1.59-1.74 2.44l-4.29 9.531c-2.102 3.642-4.406 4.48-8.4 4.48h-9.411l9.037-15.2c1.558-2.753 3.278-3.978 6.25-4.962-6.11-1.329-11.488-4.978-11.488-11.779 0-3.769 1.562-7.016 4.457-9.422 3.993-3.29 9.513-4.194 14.534-4.194h18.31v45.557-.004zM65.124 283.067h3.49c1.585 0 2.95-.297 4.094-.892 1.148-.598 2.195-1.683 3.158-3.259 5.35-6.72 10.92-25.074 21.576-29.094 7.893-2.978 14.739-2.302 18.218-2.24l-.008 12.89c.286 6.187-5.991 4.28-10.267 7.384-7.305 5.314-7.433 18.969-16.033 21.989a17.217 17.217 0 0 1 7.12 3.811c1.96 1.765 3.796 4.21 5.496 7.322l20.37 35.296h-19.307c-4.097 0-6.42-2.603-8.306-5.947l-15.121-26.866c-1.918-3.584-4.125-4.595-8.118-4.595h-6.362v37.412H44v-88.7h21.12v35.49h.004z" fill="#FFF"/><path d="M149.942 322.522c11.343 0 13.277-10.208 13.277-19.522 0-9.32-1.938-19.455-13.277-19.455-11.506 0-13.521 9.913-13.521 19.455 0 9.535 2.015 19.518 13.52 19.518v.004zm0-53.693c20.802 0 33.694 13.856 33.694 34.048 0 5.293-.818 10.06-2.452 14.309-5.223 13.495-17.158 20.06-31.242 20.06-14.05 0-26.274-6.545-31.486-20.06-1.634-4.249-2.456-9.016-2.456-14.31 0-20.326 13.08-34.047 33.942-34.047zm71.091 14.913c-5.714 0-8.926 1.995-12.51 6.266v28.165c2.788 3.106 6.202 4.477 10.344 4.477 10.734 0 12.63-11.684 12.63-20.16 0-7.177-.92-18.744-10.464-18.744v-.004zm-32.285 73.536v-87.43h12.25c2.464 0 4.086 1.115 4.85 3.33l1.467 4.864c5.533-6.095 12.313-9.472 20.614-9.472 11.911 0 19.085 8.914 22.166 19.618 2.47 8.531 2.51 19.66-.247 28.13-3.95 12.044-13.12 20.923-26.259 20.923-5.969 0-10.529-1.514-15.069-5.437v25.474H188.748zm101.898-34.756c11.336 0 13.274-10.212 13.274-19.522 0-9.32-1.942-19.455-13.274-19.455-11.505 0-13.52 9.913-13.52 19.455 0 9.535 2.01 19.518 13.52 19.518v.004zm0-53.693c20.494 0 33.695 13.558 33.695 34.048 0 20.516-13.066 34.368-33.695 34.368-20.683 0-33.945-13.72-33.945-34.368.004-20.626 13.397-34.048 33.945-34.048zm98.798 1.019v66.375h-19.776v-28.037h-20.424v28.037h-19.78v-66.375h19.776v24.133h20.425v-24.133h19.78zm6.363-28.557c-1.336 1.371-2.664 2.367-3.977 2.982-2.142 1.007-6.42 1.766-8.841-.027-2.394-1.781-1.595-6.622 1.177-8.062 2.76-1.433 8.556-1.882 11.641-2.014v7.121zm-4.544-33.013c-7.008-.004-12.552 1.026-17.645 1.809-.143 2.071-1.27 11.741 6.649 9.952 6.448-1.042 11.575-2.126 13.9.395 1.015 1.096 1.551 2.296 1.632 4.662-5.185.117-9.474.643-12.872 1.58-5.367 1.472-9.818 3.672-12.37 8.927-2.251 4.685-1.298 13.135 2.74 16.764 4.325 3.834 12.356 4.031 17.464 1.677 2.42-1.092 4.517-2.696 6.536-4.403l.962 2.501c.903 2.324 2.177 2.711 4.536 2.711H409v-29.478c0-10.165-7.86-17.097-17.737-17.097z" fill="#FFF"/><path d="M45.158 241.278h70.684v-8.343H45.158v8.343zm35.245-86l9.45 9.3-9.45 9.28-9.257-9.28 9.257-9.3zM130 195.785A74.537 74.537 0 0 0 82.81 177.1v52.153s13.642-.015 17.193 0c2.963.015 4.02-2.675 4.02-2.675l12.456-30.522a65.972 65.972 0 0 1 3.517 2.43l-12.941 30.77h9.024L130 195.786zm-34.479 26.032c-.877.03-4.409 0-4.409 0V186.32a65.985 65.985 0 0 1 18.136 5.683l-11.72 28.486c-.687 1.378-2.007 1.328-2.007 1.328zM31 195.785A74.537 74.537 0 0 1 78.194 177.1v52.153s-13.646-.015-17.193 0c-2.964.015-4.024-2.675-4.024-2.675l-12.456-30.522a67.557 67.557 0 0 0-3.517 2.43l12.945 30.77H44.92c-4.638-11.163-9.28-22.32-13.921-33.471zm34.482 26.032c.878.03 4.406 0 4.406 0V186.32a66 66 0 0 0-18.132 5.683l11.716 28.486c.687 1.378 2.01 1.328 2.01 1.328z" fill="#FFC732"/><path d="M434.025 316.734c-1.925 1.973-3.832 3.407-5.72 4.286-3.08 1.453-9.228 2.539-12.705-.038-3.455-2.554-2.304-9.52 1.677-11.592 3.978-2.05 12.31-2.699 16.748-2.886v10.23zm-6.532-47.456c-10.078 0-18.06 1.476-25.373 2.6-.206 2.978-1.827 16.879 9.56 14.306 9.266-1.491 16.644-3.051 19.992.573 1.457 1.575 2.227 3.3 2.342 6.698-7.459.176-13.625.93-18.51 2.275-7.725 2.11-14.124 5.28-17.792 12.827-3.238 6.744-1.861 18.886 3.946 24.097 6.224 5.52 17.766 5.8 25.11 2.416 3.478-1.571 6.498-3.877 9.4-6.327l1.38 3.59c1.297 3.337 3.135 3.9 6.529 3.9H453V293.86c0-14.616-11.314-24.583-25.507-24.583z" fill="#FFF"/></g></g></svg>